<svg id="Layer_1" data-name="Layer 1" xmlns="http://www.w3.org/2000/svg" xmlns:xlink="http://www.w3.org/1999/xlink" viewBox="0 0 708 398"><defs><style>.cls-1{fill:none;}.cls-2{fill:#244b5a;}.cls-3{clip-path:url(#clip-path);}.cls-4{fill:#75caca;}.cls-5{fill:#74cbca;}.cls-6{fill:#73cbca;}.cls-7{fill:#72c9c9;}.cls-8{fill:#70caca;}.cls-9{fill:#6fcac8;}.cls-10{fill:#6ec8c8;}.cls-11{fill:#6cc9c9;}.cls-12{fill:#6dc9c8;}.cls-13{fill:#69c7c8;}.cls-14{fill:#69c8c7;}.cls-15{fill:#68c8c7;}.cls-16{fill:#67c7c7;}.cls-17{fill:#65c7c7;}.cls-18{fill:#64c7c7;}.cls-19{fill:#63c6c6;}.cls-20{fill:#60c6c6;}.cls-21{fill:#60c6c5;}.cls-22{fill:#5fc6c5;}.cls-23{fill:#5cc5c4;}.cls-24{fill:#5ac5c4;}.cls-25{fill:#57c4c4;}.cls-26{fill:#58c4c3;}.cls-27{fill:#55c4c3;}.cls-28{fill:#53c3c2;}.cls-29{fill:#52c3c2;}.cls-30{fill:#50c3c2;}.cls-31{fill:#50c1c0;}.cls-32{fill:#4bc2c0;}.cls-33{fill:#4cc1c0;}.cls-34{fill:#47c1be;}.cls-35{fill:#46c0be;}.cls-36{fill:#43c0be;}.cls-37{fill:#40bfbd;}.cls-38{fill:#3bbfbd;}.cls-39{fill:#39bfbc;}.cls-40{fill:#34bebd;}.cls-41{fill:#32bebb;}.cls-42{fill:#2dbdbb;}.cls-43{fill:#24bcbb;}.cls-44{fill:#21bcb9;}.cls-45{fill:#18bbb9;}.cls-46{fill:#0fbab9;}.cls-47{fill:#03bbb8;}.cls-48{fill:#06b8b6;}.cls-49{fill:#03b7b5;}.cls-50{fill:#04b7b4;}.cls-51{fill:#00b6b5;}.cls-52{fill:#03b6b4;}.cls-53{fill:#05b6b2;}.cls-54{fill:#01b5b1;}.cls-55{fill:#00b4b1;}.cls-56{fill:#00b3b0;}.cls-57{fill:#00b2af;}.cls-58{fill:#00b2ae;}.cls-59{fill:#00b1ae;}.cls-60{fill:#00b1ad;}.cls-61{fill:#00b0ac;}.cls-62{fill:#00afac;}.cls-63{clip-path:url(#clip-path-2);}.cls-64{fill:#4dc2c1;}.cls-65{fill:#4cc2c0;}.cls-66{fill:#4bc0bf;}.cls-67{fill:#41c0be;}.cls-68{fill:#3cbfbc;}.cls-69{fill:#2fbebc;}.cls-70{fill:#2bbdba;}.cls-71{fill:#16bab9;}.cls-72{fill:#11bab7;}.cls-73{fill:#00b7b6;}</style><clipPath id="clip-path"><rect class="cls-1" x="168.88" y="128.54" width="37.82" height="37.82" transform="translate(-49.15 176.86) rotate(-45.21)"/></clipPath><clipPath id="clip-path-2"><rect class="cls-1" x="249.78" y="136.04" width="22.18" height="22.18" transform="translate(-27.33 228.63) rotate(-45.21)"/></clipPath></defs><path class="cls-2" d="M203.77,256.27a30.28,30.28,0,0,0,10.87,9,32.57,32.57,0,0,0,14.9,3.38,32.11,32.11,0,0,0,12.23-2.08,21.27,21.27,0,0,0,8.13-5.69,21.9,21.9,0,0,0,4.47-8.42,37.3,37.3,0,0,0,1.36-10.29v-12.1h-.28a25.94,25.94,0,0,1-11.23,9.79,34.61,34.61,0,0,1-14,2.88,36.14,36.14,0,0,1-13.74-2.59A34.81,34.81,0,0,1,205.35,233a32.7,32.7,0,0,1-7.49-10.87,34.13,34.13,0,0,1-2.73-13.67,35.84,35.84,0,0,1,2.59-13.68,35.08,35.08,0,0,1,7.13-11.08,32,32,0,0,1,10.79-7.41,34.91,34.91,0,0,1,13.75-2.67,39.37,39.37,0,0,1,6.41.58,30.21,30.21,0,0,1,6.76,2,31.32,31.32,0,0,1,12.89,10.37h.28V175.37h9.51v66.8a54.55,54.55,0,0,1-1.37,11.66,28.86,28.86,0,0,1-5.33,11.37,30.27,30.27,0,0,1-11,8.64q-7,3.45-18.43,3.45a46.35,46.35,0,0,1-18-3.31,41.86,41.86,0,0,1-14.4-10.22Zm1.72-48.08a25.87,25.87,0,0,0,1.95,10,26.26,26.26,0,0,0,5.32,8.2,25.86,25.86,0,0,0,7.92,5.62,23.29,23.29,0,0,0,9.86,2.08A26.38,26.38,0,0,0,248.68,227a22.81,22.81,0,0,0,5.54-8.14,26,26,0,0,0,1.8-10.65,28.63,28.63,0,0,0-1.72-10,23.77,23.77,0,0,0-13.1-13.82,26.36,26.36,0,0,0-10.66-2.09,23.3,23.3,0,0,0-9.86,2.09,25.83,25.83,0,0,0-7.92,5.61,26.37,26.37,0,0,0-5.32,8.21A25.79,25.79,0,0,0,205.49,208.19ZM304,242.74H293.59V140.82H325q15.54,0,24.54,6.77t9,20.44a25.48,25.48,0,0,1-6.7,17.92q-6.69,7.28-19.36,8.42l29.37,48.37H349.16l-27.93-47.36H304Zm0-56.86h18.43a41.46,41.46,0,0,0,11.73-1.44,21.73,21.73,0,0,0,7.7-3.82A13.8,13.8,0,0,0,346,175a18.52,18.52,0,0,0,1.3-7,18.23,18.23,0,0,0-1.3-6.84,14.52,14.52,0,0,0-4.17-5.69,20.45,20.45,0,0,0-7.7-3.81,43.38,43.38,0,0,0-11.73-1.37H304Zm75.72-45.06h29.65q15.56,0,24.55,6.77t9,20.44q0,13.68-9,20.51t-24.55,6.84H390v47.36H379.68ZM390,185.88h16.7a41.57,41.57,0,0,0,11.74-1.44,21.87,21.87,0,0,0,7.7-3.81,14,14,0,0,0,4.17-5.62,18.52,18.52,0,0,0,1.3-7,18.23,18.23,0,0,0-1.3-6.84,14.52,14.52,0,0,0-4.17-5.69,20.45,20.45,0,0,0-7.7-3.81,43.41,43.41,0,0,0-11.74-1.37H390ZM547,226.62a39.27,39.27,0,0,1-6.4,7.34,40.53,40.53,0,0,1-8.71,6,49.61,49.61,0,0,1-10.58,4,48.69,48.69,0,0,1-12,1.44,54.43,54.43,0,0,1-21.09-4,50.55,50.55,0,0,1-28-28.07,59.1,59.1,0,0,1,0-42.9,50.55,50.55,0,0,1,28-28.07,54.43,54.43,0,0,1,21.09-4,51.37,51.37,0,0,1,19,3.74,38.36,38.36,0,0,1,16.26,12.38l-9.06,6.77a24.89,24.89,0,0,0-4.32-4.9,32,32,0,0,0-6.26-4.31,38.89,38.89,0,0,0-7.56-3,29.35,29.35,0,0,0-8.06-1.15,41.35,41.35,0,0,0-17.57,3.6A40.06,40.06,0,0,0,478.5,161a42.51,42.51,0,0,0-8.28,14,50.39,50.39,0,0,0,0,33.54,42.51,42.51,0,0,0,8.28,14,39.81,39.81,0,0,0,13.17,9.64,41.35,41.35,0,0,0,17.57,3.6,44.63,44.63,0,0,0,8-.72,32.66,32.66,0,0,0,7.77-2.45,29.11,29.11,0,0,0,7.2-4.68,34.72,34.72,0,0,0,6.26-7.41Z"/><g class="cls-3"><path class="cls-4" d="M161.52,120.7l-.47,4.19V120.7Z"/><path class="cls-5" d="M162.15,120.7l-1.1,9.72v-5.53l.47-4.19Z"/><path class="cls-5" d="M162.77,120.7,161.05,136v-5.54l1.1-9.72Z"/><path class="cls-6" d="M163.4,120.7l-2.35,20.79V136l1.72-15.26Z"/><path class="cls-6" d="M164,120.7l-3,26.33v-5.54l2.35-20.79Z"/><path class="cls-7" d="M164.65,120.7l-3.6,31.86V147l3-26.33Zm.62,0-4.22,37.39v-5.53l3.6-31.86Z"/><path class="cls-8" d="M165.9,120.7l-4.85,42.93v-5.54l4.22-37.39Z"/><path class="cls-8" d="M166.52,120.7l-5.47,48.46v-5.53l4.85-42.93Z"/><path class="cls-9" d="M167.15,120.7l-6,53.46h-.06v-5l5.47-48.46Z"/><path class="cls-10" d="M167.77,120.7l-6,53.49h-.33l-.29,0,6-53.46Z"/><path class="cls-10" d="M168.4,120.7l-6,53.49h-.63l6-53.49Z"/><path class="cls-11" d="M169,120.7l-6,53.49h-.62l6-53.49Z"/><path class="cls-12" d="M169.65,120.7l-6,53.49H163l6-53.49Z"/><path class="cls-13" d="M170.27,120.7l-6,53.49h-.62l6-53.49Z"/><path class="cls-13" d="M170.9,120.7l-6,53.49h-.63l6-53.49Z"/><path class="cls-14" d="M171.53,120.7l-6.05,53.49h-.62l6-53.49Z"/><path class="cls-15" d="M172.15,120.7l-6,53.49h-.63l6.05-53.49Z"/><path class="cls-16" d="M172.78,120.7l-6.05,53.49h-.62l6-53.49Z"/><path class="cls-17" d="M173.4,120.7l-6,53.49h-.63l6.05-53.49Z"/><path class="cls-18" d="M174,120.7,168,174.19h-.62l6-53.49Z"/><path class="cls-19" d="M174.65,120.7l-6,53.49H168L174,120.7Z"/><path class="cls-20" d="M175.28,120.7l-6.05,53.49h-.62l6-53.49Z"/><path class="cls-21" d="M175.9,120.7l-6,53.49h-.63l6.05-53.49Z"/><path class="cls-22" d="M176.53,120.7l-6.05,53.49h-.62l6-53.49Z"/><path class="cls-23" d="M177.15,120.7l-6,53.49h-.63l6.05-53.49Z"/><path class="cls-24" d="M177.78,120.7l-6.05,53.49h-.62l6-53.49Z"/><path class="cls-24" d="M178.4,120.7l-6,53.49h-.63l6.05-53.49Z"/><path class="cls-25" d="M179,120.7,173,174.19h-.62l6-53.49Z"/><path class="cls-26" d="M179.65,120.7l-6,53.49H173L179,120.7Z"/><path class="cls-27" d="M180.28,120.7l-6,53.49h-.63l6-53.49Z"/><path class="cls-28" d="M180.9,120.7l-6,53.49h-.62l6-53.49Z"/><path class="cls-29" d="M181.53,120.7l-6,53.49h-.63l6-53.49Z"/><path class="cls-30" d="M182.15,120.7l-6,53.49h-.62l6-53.49Z"/><path class="cls-31" d="M182.78,120.7l-6,53.49h-.63l6-53.49Z"/><path class="cls-32" d="M183.41,120.7l-6,53.49h-.62l6-53.49Z"/><path class="cls-33" d="M184,120.7l-6,53.49h-.63l6-53.49Z"/><path class="cls-34" d="M184.66,120.7l-6,53.49H178l6-53.49Z"/><path class="cls-35" d="M185.28,120.7l-6,53.49h-.63l6-53.49Z"/><path class="cls-36" d="M185.91,120.7l-6,53.49h-.62l6-53.49Z"/><path class="cls-37" d="M186.53,120.7l-6,53.49h-.63l6-53.49Z"/><path class="cls-38" d="M187.16,120.7l-6,53.49h-.62l6-53.49Z"/><path class="cls-39" d="M187.78,120.7l-6,53.49h-.63l6-53.49Z"/><path class="cls-40" d="M188.41,120.7l-6,53.49h-.62l6-53.49Z"/><path class="cls-41" d="M189,120.7l-6,53.49h-.63l6-53.49Z"/><path class="cls-42" d="M189.66,120.7l-6,53.49H183l6-53.49Z"/><path class="cls-43" d="M190.28,120.7l-6,53.49h-.63l6-53.49Z"/><path class="cls-44" d="M190.91,120.7l-6,53.49h-.62l6-53.49Z"/><path class="cls-45" d="M191.53,120.7l-6,53.49h-.63l6-53.49Z"/><path class="cls-46" d="M192.16,120.7l-6,53.49h-.63l6-53.49Z"/><path class="cls-47" d="M192.78,120.7l-6,53.49h-.62l6-53.49Z"/><path class="cls-48" d="M193.41,120.7l-6,53.49h-.63l6-53.49Z"/><path class="cls-48" d="M194,120.7l-6,53.49h-.62l6-53.49Z"/><path class="cls-49" d="M194.66,120.7l-6,53.49H188l6-53.49Z"/><path class="cls-50" d="M195.28,120.7l-6,53.49h-.62l6-53.49Z"/><path class="cls-51" d="M195.91,120.7l-6,53.49h-.63l6-53.49Z"/><path class="cls-52" d="M196.54,120.7l-6,53.49h-.62l6-53.49Z"/><path class="cls-53" d="M197.16,120.7l-6,53.49h-.63l6-53.49Z"/><path class="cls-54" d="M197.79,120.7l-6,53.49h-.62l6-53.49Z"/><path class="cls-54" d="M198.41,120.7l-6,53.49h-.63l6-53.49Z"/><path class="cls-55" d="M199,120.7l-6,53.49h-.62l6-53.49Z"/><path class="cls-56" d="M199.66,120.7l-6,53.49H193l6-53.49Z"/><path class="cls-56" d="M200.29,120.7l-6,53.49h-.62l6-53.49Z"/><path class="cls-57" d="M200.91,120.7l-6,53.49h-.63l6-53.49Z"/><path class="cls-58" d="M201.54,120.7l-6,53.49h-.62l6-53.49Z"/><path class="cls-59" d="M202.16,120.7l-6,53.49h-.63l6-53.49Z"/><path class="cls-60" d="M202.79,120.7l-6,53.49h-.62l6-53.49Z"/><path class="cls-61" d="M203.41,120.7l-6,53.49h-.63l6-53.49Z"/><path class="cls-62" d="M204,120.7l-6,53.49h-.63l6-53.49Z"/><path class="cls-62" d="M214.18,120.7l.35,0v53.45H198l6-53.49Z"/></g><g class="cls-63"><path class="cls-4" d="M276.56,140.61l-.43-9.17h.43Z"/><path class="cls-5" d="M276.56,150.24l-.87-18.8h.44l.43,9.17Z"/><path class="cls-5" d="M276.56,159.86l-1.32-28.42h.45l.87,18.8Z"/><path class="cls-6" d="M276.25,162.82l-1.46-31.38h.45l1.32,28.42v3Z"/><path class="cls-7" d="M275.8,162.82l-1.46-31.38h.45l1.46,31.38Zm-.45,0-1.46-31.38h.45l1.46,31.38Z"/><path class="cls-8" d="M274.9,162.82l-1.46-31.38h.45l1.46,31.38Z"/><path class="cls-9" d="M274.46,162.82,273,131.44h.45l1.46,31.38Z"/><path class="cls-10" d="M274,162.82l-1.46-31.38H273l1.47,31.38Z"/><path class="cls-10" d="M273.56,162.82l-1.46-31.38h.45L274,162.82Z"/><path class="cls-11" d="M273.11,162.82l-1.46-31.38h.45l1.46,31.38Z"/><path class="cls-12" d="M272.66,162.82l-1.46-31.38h.45l1.46,31.38Z"/><path class="cls-13" d="M272.21,162.82l-1.46-31.38h.45l1.46,31.38Z"/><path class="cls-13" d="M271.76,162.82l-1.46-31.38h.45l1.46,31.38Z"/><path class="cls-14" d="M271.32,162.82l-1.47-31.38h.45l1.46,31.38Z"/><path class="cls-15" d="M270.87,162.82l-1.46-31.38h.44l1.47,31.38Z"/><path class="cls-16" d="M270.42,162.82,269,131.44h.45l1.46,31.38Z"/><path class="cls-17" d="M270,162.82l-1.46-31.38H269l1.46,31.38Z"/><path class="cls-18" d="M269.52,162.82l-1.46-31.38h.45L270,162.82Z"/><path class="cls-19" d="M269.07,162.82l-1.46-31.38h.45l1.46,31.38Z"/><path class="cls-20" d="M268.63,162.82l-1.47-31.38h.45l1.46,31.38Z"/><path class="cls-21" d="M268.18,162.82l-1.46-31.38h.44l1.47,31.38Z"/><path class="cls-22" d="M267.73,162.82l-1.46-31.38h.45l1.46,31.38Z"/><path class="cls-22" d="M267.28,162.82l-1.46-31.38h.45l1.46,31.38Z"/><path class="cls-23" d="M266.83,162.82l-1.46-31.38h.45l1.46,31.38Z"/><path class="cls-24" d="M266.38,162.82l-1.46-31.38h.45l1.46,31.38Z"/><path class="cls-24" d="M265.93,162.82l-1.46-31.38h.45l1.46,31.38Z"/><path class="cls-25" d="M265.49,162.82,264,131.44h.45l1.46,31.38Z"/><path class="cls-26" d="M265,162.82l-1.46-31.38H264l1.47,31.38Z"/><path class="cls-27" d="M264.59,162.82l-1.46-31.38h.45L265,162.82Z"/><path class="cls-28" d="M264.14,162.82l-1.46-31.38h.45l1.46,31.38Zm-.45,0-1.46-31.38h.45l1.46,31.38Z"/><path class="cls-29" d="M263.24,162.82l-1.46-31.38h.45l1.46,31.38Z"/><path class="cls-30" d="M262.8,162.82l-1.47-31.38h.45l1.46,31.38Z"/><path class="cls-31" d="M262.35,162.82l-1.46-31.38h.44l1.47,31.38Z"/><path class="cls-64" d="M261.9,162.82l-1.46-31.38h.45l1.46,31.38Z"/><path class="cls-65" d="M261.45,162.82,260,131.44h.45l1.46,31.38Z"/><path class="cls-66" d="M261,162.82l-1.46-31.38H260l1.46,31.38Z"/><path class="cls-34" d="M260.55,162.82l-1.46-31.38h.45L261,162.82Z"/><path class="cls-35" d="M260.1,162.82l-1.46-31.38h.45l1.46,31.38Z"/><path class="cls-36" d="M259.66,162.82l-1.47-31.38h.45l1.46,31.38Z"/><path class="cls-67" d="M259.21,162.82l-1.46-31.38h.44l1.47,31.38Z"/><path class="cls-37" d="M258.76,162.82l-1.46-31.38h.45l1.46,31.38Z"/><path class="cls-38" d="M258.31,162.82l-1.46-31.38h.45l1.46,31.38Z"/><path class="cls-68" d="M257.86,162.82l-1.46-31.38h.45l1.46,31.38Z"/><path class="cls-39" d="M257.41,162.82,256,131.44h.45l1.46,31.38Z"/><path class="cls-40" d="M257,162.82l-1.46-31.38H256l1.46,31.38Z"/><path class="cls-41" d="M256.52,162.82l-1.46-31.38h.44L257,162.82Z"/><path class="cls-69" d="M256.07,162.82l-1.46-31.38h.45l1.46,31.38Z"/><path class="cls-42" d="M255.62,162.82l-1.46-31.38h.45l1.46,31.38Z"/><path class="cls-70" d="M255.17,162.82l-1.46-31.38h.45l1.46,31.38Z"/><path class="cls-43" d="M254.72,162.82l-1.46-31.38h.45l1.46,31.38Z"/><path class="cls-44" d="M254.27,162.82l-1.46-31.38h.45l1.46,31.38Z"/><path class="cls-45" d="M253.83,162.82l-1.47-31.38h.45l1.46,31.38Z"/><path class="cls-71" d="M253.38,162.82l-1.46-31.38h.44l1.47,31.38Z"/><path class="cls-72" d="M252.93,162.82l-1.46-31.38h.45l1.46,31.38Z"/><path class="cls-47" d="M252.48,162.82,251,131.44h.45l1.46,31.38Z"/><path class="cls-48" d="M252,162.82l-1.46-31.38H251l1.46,31.38Z"/><path class="cls-48" d="M251.58,162.82l-1.46-31.38h.45L252,162.82Z"/><path class="cls-48" d="M251.13,162.82l-1.46-31.38h.45l1.46,31.38Z"/><path class="cls-73" d="M250.69,162.82l-1.46-31.38h.44l1.46,31.38Z"/><path class="cls-49" d="M250.24,162.82l-1.46-31.38h.45l1.46,31.38Z"/><path class="cls-50" d="M249.79,162.82l-1.46-31.38h.45l1.46,31.38Z"/><path class="cls-51" d="M249.34,162.82l-1.46-31.38h.45l1.46,31.38Z"/><path class="cls-51" d="M248.89,162.82l-1.46-31.38h.45l1.46,31.38Z"/><path class="cls-51" d="M248.44,162.82,247,131.44h.45l1.46,31.38Z"/><path class="cls-52" d="M248,162.82l-1.47-31.38H247l1.46,31.38Zm-.45,0-1.46-31.38h.44L248,162.82Z"/><path class="cls-53" d="M247.1,162.82l-1.46-31.38h.45l1.46,31.38Z"/><path class="cls-54" d="M246.65,162.82l-1.46-31.38h.45l1.46,31.38Z"/><path class="cls-54" d="M246.2,162.82l-1-21.79v-9.59h0l1.46,31.38Zm-.45,0-.56-12.16V141l1,21.79Z"/><path class="cls-55" d="M245.3,162.82l-.11-2.53v-9.63l.56,12.16Z"/><path class="cls-55" d="M245.19,160.29l.11,2.53h-.11Z"/></g><path class="cls-2" d="M188.87,131.28l-16.14,16.25L189,163.67l13.75,0-14.42-14.31,71.21-.26-6.24,6.28,6.87,0,8.07-8.12-8.13-8.07-6.87,0,6.28,6.24-71.2.27,14.31-14.42Z"/></svg>