<?xml version="1.0" encoding="UTF-8" standalone="no"?>
<svg
   xmlns:dc="http://purl.org/dc/elements/1.1/"
   xmlns:cc="http://creativecommons.org/ns#"
   xmlns:rdf="http://www.w3.org/1999/02/22-rdf-syntax-ns#"
   xmlns:svg="http://www.w3.org/2000/svg"
   xmlns="http://www.w3.org/2000/svg"
   xmlns:sodipodi="http://sodipodi.sourceforge.net/DTD/sodipodi-0.dtd"
   xmlns:inkscape="http://www.inkscape.org/namespaces/inkscape"
   version="1.1"
   id="svg2"
   xml:space="preserve"
   width="399.86667"
   height="160.26666"
   viewBox="0 0 399.86667 160.26666"
   sodipodi:docname="logo-zse-full.eps"><metadata
     id="metadata8"><rdf:RDF><cc:Work
         rdf:about=""><dc:format>image/svg+xml</dc:format><dc:type
           rdf:resource="http://purl.org/dc/dcmitype/StillImage" /></cc:Work></rdf:RDF></metadata><defs
     id="defs6" /><sodipodi:namedview
     pagecolor="#ffffff"
     bordercolor="#666666"
     borderopacity="1"
     objecttolerance="10"
     gridtolerance="10"
     guidetolerance="10"
     inkscape:pageopacity="0"
     inkscape:pageshadow="2"
     inkscape:window-width="640"
     inkscape:window-height="480"
     id="namedview4" /><g
     id="g10"
     inkscape:groupmode="layer"
     inkscape:label="ink_ext_XXXXXX"
     transform="matrix(1.3333333,0,0,-1.3333333,0,160.26667)"><g
       id="g12"
       transform="scale(0.1)"><path
         d="m 1261.7,928.855 v -21.363 l -78.48,-124.074 h 78.48 v -21.363 h -109.92 v 21.363 l 78.24,124.074 h -78.24 v 21.363 h 109.92"
         style="fill:#2e2d2d;fill-opacity:1;fill-rule:nonzero;stroke:none"
         id="path14" /><path
         d="m 1373.54,863.695 c -7.04,6.481 -15.6,9.723 -25.68,9.723 -10.08,0 -18.52,-3.242 -25.32,-9.723 -6.8,-6.48 -10.68,-15.16 -11.64,-26.039 h 73.44 c -0.16,10.879 -3.76,19.559 -10.8,26.039 z m -26.16,-103.8 c -19.2,0 -34.8,6.242 -46.8,18.718 -12,12.481 -18,29.043 -18,49.684 0,20.637 6.08,37.156 18.24,49.558 12.16,12.399 27.88,18.598 47.16,18.598 19.28,0 34.92,-5.961 46.92,-17.879 12,-11.922 18,-27.48 18,-46.679 0,-4.645 -0.32,-8.961 -0.96,-12.961 h -101.28 c 0.64,-11.039 4.36,-19.797 11.16,-26.278 6.8,-6.48 15.32,-9.722 25.56,-9.722 14.88,0 25.36,6.156 31.44,18.48 h 29.52 c -4,-12.16 -11.28,-22.121 -21.84,-29.879 -10.56,-7.762 -23.6,-11.64 -39.12,-11.64"
         style="fill:#2e2d2d;fill-opacity:1;fill-rule:nonzero;stroke:none"
         id="path16" /><path
         d="m 1433.78,856.375 c 0,11.195 4.72,20.676 14.16,28.438 9.44,7.757 21.84,11.64 37.2,11.64 15.36,0 27.56,-3.805 36.6,-11.398 9.04,-7.598 13.88,-17.961 14.52,-31.082 h -28.08 c -0.48,6.558 -2.76,11.679 -6.84,15.363 -4.08,3.676 -9.81,5.516 -17.16,5.516 -7.36,0 -13.13,-1.641 -17.28,-4.914 -4.17,-3.286 -6.24,-7.606 -6.24,-12.961 0,-5.368 2.64,-9.567 7.92,-12.602 5.28,-3.043 11.72,-5.277 19.32,-6.719 7.59,-1.441 15.2,-3.203 22.8,-5.277 7.6,-2.086 14.04,-5.887 19.32,-11.402 5.28,-5.524 7.92,-12.926 7.92,-22.204 0,-11.519 -4.84,-20.878 -14.52,-28.082 -9.68,-7.195 -22.13,-10.796 -37.32,-10.796 -15.21,0 -27.53,3.679 -36.96,11.043 -9.44,7.351 -14.64,17.835 -15.6,31.441 h 28.32 c 0.48,-6.566 2.88,-11.688 7.2,-15.363 4.32,-3.68 10.2,-5.524 17.64,-5.524 7.44,0 13.35,1.641 17.76,4.922 4.4,3.277 6.6,7.637 6.6,13.082 0,5.434 -2.64,9.68 -7.92,12.719 -5.28,3.039 -11.72,5.316 -19.32,6.844 -7.6,1.515 -15.21,3.273 -22.8,5.277 -7.6,1.996 -14.04,5.641 -19.32,10.918 -5.28,5.281 -7.92,12.316 -7.92,21.121"
         style="fill:#2e2d2d;fill-opacity:1;fill-rule:nonzero;stroke:none"
         id="path18" /><path
         d="m 1663.7,796.016 c 7.99,8.238 12,19.16 12,32.757 0,13.598 -3.96,24.321 -11.88,32.165 -7.92,7.835 -17.36,11.757 -28.32,11.757 -10.96,0 -20.4,-4 -28.32,-12.004 -7.92,-7.996 -11.88,-18.796 -11.88,-32.394 0,-13.606 3.96,-24.445 11.88,-32.524 7.92,-8.078 17.31,-12.117 28.2,-12.117 10.87,0 20.31,4.117 28.32,12.36 z m -22.32,100.437 c 17.76,0 32.56,-6.277 44.4,-18.836 11.84,-12.562 17.76,-28.883 17.76,-48.961 0,-20.082 -5.97,-36.562 -17.89,-49.441 -11.91,-12.883 -26.68,-19.32 -44.27,-19.32 -10.41,0 -19.52,2.437 -27.36,7.32 -7.84,4.879 -14.08,11.398 -18.72,19.562 v -87.601 h -27.37 v 195.121 h 27.37 v -23.524 c 4.48,7.684 10.68,13.879 18.6,18.602 7.92,4.715 17.07,7.078 27.48,7.078"
         style="fill:#2e2d2d;fill-opacity:1;fill-rule:nonzero;stroke:none"
         id="path20" /><path
         d="m 1760.9,923.813 53.04,29.281 v -23.281 l -53.04,-26.157 z m 55.68,-128.875 c 8,7.996 11.99,19.113 11.99,33.359 0,14.234 -3.87,25.316 -11.63,33.238 -7.77,7.922 -17.16,11.883 -28.2,11.883 -11.04,0 -20.33,-3.961 -27.84,-11.883 -7.53,-7.922 -11.29,-19.043 -11.29,-33.363 0,-14.32 3.69,-25.438 11.04,-33.359 7.36,-7.918 16.52,-11.879 27.48,-11.879 10.96,0 20.44,4 28.45,12.004 z m -28.45,-35.043 c -19.28,0 -35.15,6.277 -47.63,18.839 -12.48,12.559 -18.72,29.039 -18.72,49.438 0,20.402 6.43,36.883 19.32,49.445 12.87,12.559 28.91,18.836 48.11,18.836 19.21,0 35.24,-6.277 48.12,-18.836 12.88,-12.562 19.33,-29.004 19.33,-49.32 0,-20.324 -6.6,-36.805 -19.8,-49.442 -13.2,-12.64 -29.44,-18.96 -48.73,-18.96"
         style="fill:#2e2d2d;fill-opacity:1;fill-rule:nonzero;stroke:none"
         id="path22" /><path
         d="m 1911.13,762.055 h -27.36 v 67.679 l -15.84,-5.519 v 25.437 l 15.84,5.286 v 84.714 h 27.36 v -75.355 l 16.08,5.516 v -25.2 l -16.08,-5.515 v -77.043"
         style="fill:#2e2d2d;fill-opacity:1;fill-rule:nonzero;stroke:none"
         id="path24" /><path
         d="m 2070.97,908.695 c -8.16,0 -14.8,-2.082 -19.92,-6.238 -5.12,-4.168 -7.68,-10.203 -7.68,-18.121 0,-7.922 3.04,-13.961 9.12,-18.121 6.07,-4.164 13.44,-7.203 22.08,-9.121 8.64,-1.918 17.28,-4.121 25.92,-6.598 8.64,-2.484 15.99,-7.078 22.08,-13.805 6.08,-6.714 9.12,-16.238 9.12,-28.558 0,-12.32 -5.21,-23.36 -15.6,-33.117 -10.41,-9.762 -24.32,-14.641 -41.76,-14.641 -17.45,0 -31.61,4.082 -42.48,12.242 -10.88,8.156 -16.32,19.438 -16.32,33.836 h 29.28 c 0.63,-7.355 3.36,-13.195 8.16,-17.519 4.8,-4.321 11.83,-6.477 21.12,-6.477 9.27,0 16.59,2.395 21.96,7.195 5.36,4.805 8.04,10.481 8.04,17.039 0,6.567 -1.64,11.684 -4.92,15.364 -3.28,3.675 -7.52,6.441 -12.72,8.281 -5.2,1.836 -10.92,3.477 -17.16,4.918 -6.24,1.437 -12.52,3.121 -18.84,5.043 -6.32,1.918 -12.09,4.394 -17.28,7.437 -5.2,3.036 -9.44,7.481 -12.72,13.321 -3.28,5.84 -4.92,12.996 -4.92,21.476 0,14.563 5.24,26.282 15.72,35.164 10.47,8.879 24.08,13.321 40.8,13.321 16.71,0 30.08,-3.84 40.08,-11.52 9.99,-7.68 15.56,-18.805 16.68,-33.359 h -30.24 c -0.65,6.394 -3.36,11.758 -8.16,16.078 -4.8,4.32 -11.28,6.48 -19.44,6.48"
         style="fill:#2e2d2d;fill-opacity:1;fill-rule:nonzero;stroke:none"
         id="path26" /><path
         d="m 2248.33,894.297 v -22.32 l -60,-87.602 h 60 v -22.32 h -91.68 v 22.32 l 60.23,87.602 h -60.23 v 22.32 h 91.68"
         style="fill:#2e2d2d;fill-opacity:1;fill-rule:nonzero;stroke:none"
         id="path28" /><path
         d="m 2304.48,762.055 h -27.36 v 177.597 h 27.36 V 836.453 l 48,57.844 h 37.92 l -60.96,-66.242 60.96,-66 h -36.96 l -48.96,56.879 v -56.879"
         style="fill:#2e2d2d;fill-opacity:1;fill-rule:nonzero;stroke:none"
         id="path30" /><path
         d="m 2440.32,923.813 53.04,29.281 v -23.281 l -53.04,-26.157 z M 2496,794.938 c 8,7.996 12,19.113 12,33.359 0,14.234 -3.88,25.316 -11.64,33.238 -7.76,7.922 -17.16,11.883 -28.2,11.883 -11.04,0 -20.32,-3.961 -27.84,-11.883 -7.52,-7.922 -11.28,-19.043 -11.28,-33.363 0,-14.32 3.68,-25.438 11.04,-33.359 7.36,-7.918 16.52,-11.879 27.48,-11.879 10.96,0 20.44,4 28.44,12.004 z m -28.44,-35.043 c -19.28,0 -35.16,6.277 -47.64,18.839 -12.48,12.559 -18.72,29.039 -18.72,49.438 0,20.402 6.44,36.883 19.32,49.445 12.88,12.559 28.92,18.836 48.12,18.836 19.2,0 35.24,-6.277 48.12,-18.836 12.88,-12.562 19.32,-29.004 19.32,-49.32 0,-20.324 -6.6,-36.805 -19.8,-49.442 -13.2,-12.64 -29.44,-18.96 -48.72,-18.96"
         style="fill:#2e2d2d;fill-opacity:1;fill-rule:nonzero;stroke:none"
         id="path32" /><path
         d="m 2590.56,762.055 h -27.37 v 67.679 l -15.84,-5.519 v 25.437 l 15.84,5.286 v 84.714 h 27.37 v -75.355 l 16.08,5.516 v -25.2 l -16.08,-5.515 v -77.043"
         style="fill:#2e2d2d;fill-opacity:1;fill-rule:nonzero;stroke:none"
         id="path34" /><path
         d="m 1249.94,661.098 v -21.364 h -64.8 v -50.632 h 57.6 v -21.125 h -57.6 v -52.559 h 64.8 v -21.367 h -92.16 v 167.047 h 92.16"
         style="fill:#2e2d2d;fill-opacity:1;fill-rule:nonzero;stroke:none"
         id="path36" /><path
         d="m 1283.54,494.051 v 177.601 h 27.36 V 494.051 h -27.36"
         style="fill:#2e2d2d;fill-opacity:1;fill-rule:nonzero;stroke:none"
         id="path38" /><path
         d="m 1428.74,595.703 c -7.05,6.473 -15.61,9.715 -25.68,9.715 -10.08,0 -18.52,-3.242 -25.33,-9.715 -6.8,-6.484 -10.67,-15.168 -11.63,-26.047 h 73.44 c -0.16,10.879 -3.76,19.563 -10.8,26.047 z m -26.16,-103.801 c -19.2,0 -34.8,6.231 -46.8,18.711 -12.01,12.481 -18,29.043 -18,49.688 0,20.637 6.08,37.16 18.24,49.554 12.15,12.399 27.87,18.602 47.16,18.602 19.28,0 34.92,-5.965 46.92,-17.883 11.99,-11.922 18,-27.48 18,-46.679 0,-4.649 -0.33,-8.965 -0.96,-12.957 h -101.29 c 0.64,-11.047 4.36,-19.797 11.17,-26.282 6.79,-6.484 15.31,-9.726 25.56,-9.726 14.88,0 25.35,6.164 31.44,18.488 h 29.52 c -4,-12.16 -11.28,-22.121 -21.85,-29.875 -10.55,-7.773 -23.59,-11.641 -39.11,-11.641"
         style="fill:#2e2d2d;fill-opacity:1;fill-rule:nonzero;stroke:none"
         id="path40" /><path
         d="m 1522.33,494.051 h -27.36 v 177.601 h 27.36 V 568.457 l 48,57.84 h 37.92 l -60.96,-66.238 60.96,-66.008 h -36.96 l -48.96,56.887 v -56.887"
         style="fill:#2e2d2d;fill-opacity:1;fill-rule:nonzero;stroke:none"
         id="path42" /><path
         d="m 1692.01,603.984 h -32.16 V 530.77 c 0,-4.961 1.16,-8.516 3.48,-10.672 2.32,-2.16 6.28,-3.243 11.88,-3.243 h 16.8 v -22.804 h -21.6 c -25.44,0 -38.16,12.246 -38.16,36.719 v 73.214 h -15.6 v 22.313 h 15.6 v 32.883 h 27.6 v -32.883 h 32.16 v -22.313"
         style="fill:#2e2d2d;fill-opacity:1;fill-rule:nonzero;stroke:none"
         id="path44" /><path
         d="m 1744.57,626.297 v -23.035 c 8.48,16.797 21.68,25.195 39.6,25.195 v -28.32 h -6.96 c -10.72,0 -18.84,-2.715 -24.36,-8.164 -5.52,-5.43 -8.28,-14.875 -8.28,-28.313 v -69.609 h -27.36 v 132.246 h 27.36"
         style="fill:#2e2d2d;fill-opacity:1;fill-rule:nonzero;stroke:none"
         id="path46" /><path
         d="m 1895.29,526.941 c 8,7.989 12,19.114 12,33.36 0,14.23 -3.88,25.312 -11.64,33.234 -7.76,7.93 -17.16,11.883 -28.2,11.883 -11.04,0 -20.33,-3.953 -27.84,-11.883 -7.53,-7.922 -11.28,-19.043 -11.28,-33.359 0,-14.328 3.68,-25.442 11.04,-33.36 7.35,-7.921 16.51,-11.886 27.48,-11.886 10.95,0 20.44,4.004 28.44,12.011 z m -28.44,-35.039 c -19.29,0 -35.16,6.27 -47.64,18.828 -12.48,12.559 -18.72,29.043 -18.72,49.446 0,20.398 6.43,36.875 19.32,49.441 12.88,12.559 28.92,18.84 48.11,18.84 19.21,0 35.24,-6.281 48.12,-18.84 12.89,-12.566 19.33,-29.004 19.33,-49.316 0,-20.332 -6.6,-36.805 -19.8,-49.442 -13.2,-12.648 -29.44,-18.957 -48.72,-18.957"
         style="fill:#2e2d2d;fill-opacity:1;fill-rule:nonzero;stroke:none"
         id="path48" /><path
         d="m 1989.84,626.297 v -20.879 c 8.8,15.355 22.88,23.039 42.24,23.039 14.88,0 27.16,-4.961 36.84,-14.879 9.68,-9.926 14.52,-23.754 14.52,-41.527 v -78 h -27.12 v 73.926 c 0,11.836 -2.96,20.918 -8.88,27.238 -5.92,6.328 -14,9.48 -24.24,9.48 -10.24,0 -18.36,-3.152 -24.36,-9.48 -6,-6.32 -9,-15.402 -9,-27.238 v -73.926 h -27.36 v 132.246 h 27.36"
         style="fill:#2e2d2d;fill-opacity:1;fill-rule:nonzero;stroke:none"
         id="path50" /><path
         d="m 2118.24,494.051 v 132.246 h 27.36 V 494.051 Z m 31.2,167.285 c 0,-4.961 -1.68,-9.121 -5.04,-12.481 -3.36,-3.359 -7.48,-5.039 -12.36,-5.039 -4.88,0 -9,1.68 -12.36,5.039 -3.36,3.36 -5.04,7.52 -5.04,12.481 0,4.957 1.68,9.121 5.04,12.48 3.36,3.36 7.48,5.039 12.36,5.039 4.88,0 9,-1.679 12.36,-5.039 3.36,-3.359 5.04,-7.523 5.04,-12.48"
         style="fill:#2e2d2d;fill-opacity:1;fill-rule:nonzero;stroke:none"
         id="path52" /><path
         d="m 2190.47,510.613 c -12,12.481 -17.99,29.004 -17.99,49.563 0,20.566 6.03,37.078 18.12,49.558 12.07,12.481 27.63,18.723 46.68,18.723 15.99,0 29.23,-3.805 39.71,-11.402 10.48,-7.598 17.56,-18.442 21.24,-32.524 h -29.51 c -4.97,13.926 -15.45,20.887 -31.44,20.887 -11.21,0 -20.13,-3.953 -26.77,-11.883 -6.64,-7.922 -9.96,-19.004 -9.96,-33.234 0,-14.246 3.32,-25.371 9.96,-33.36 6.64,-8.007 15.56,-12.011 26.77,-12.011 15.84,0 26.31,6.972 31.44,20.879 h 29.51 c -3.84,-13.438 -11.04,-24.11 -21.59,-32.032 -10.57,-7.918 -23.69,-11.875 -39.36,-11.875 -19.2,0 -34.8,6.231 -46.81,18.711"
         style="fill:#2e2d2d;fill-opacity:1;fill-rule:nonzero;stroke:none"
         id="path54" /><path
         d="m 2409.83,626.297 v -22.313 l -60,-87.609 h 60 v -22.324 h -91.68 v 22.324 l 60.24,87.609 h -60.24 v 22.313 h 91.68"
         style="fill:#2e2d2d;fill-opacity:1;fill-rule:nonzero;stroke:none"
         id="path56" /><path
         d="m 2466,626.297 v -20.879 c 8.79,15.355 22.87,23.039 42.23,23.039 14.89,0 27.16,-4.961 36.84,-14.879 9.69,-9.926 14.52,-23.754 14.52,-41.527 v -78 h -27.11 v 73.926 c 0,11.836 -2.97,20.918 -8.89,27.238 -5.91,6.328 -14,9.48 -24.23,9.48 -10.25,0 -18.36,-3.152 -24.36,-9.48 -6.01,-6.32 -9,-15.402 -9,-27.238 v -73.926 h -27.37 V 626.297 H 2466"
         style="fill:#2e2d2d;fill-opacity:1;fill-rule:nonzero;stroke:none"
         id="path58" /><path
         d="m 2630.87,496.219 -52.08,130.078 h 30.48 l 37.19,-100.801 38.65,100.801 h 28.32 L 2632.3,431.902 h -28.32 l 26.89,64.317"
         style="fill:#2e2d2d;fill-opacity:1;fill-rule:nonzero;stroke:none"
         id="path60" /><path
         d="m 2742.94,510.613 c -11.99,12.481 -17.99,29.004 -17.99,49.563 0,20.566 6.04,37.078 18.12,49.558 12.08,12.481 27.63,18.723 46.68,18.723 15.99,0 29.23,-3.805 39.71,-11.402 10.48,-7.598 17.56,-18.442 21.24,-32.524 h -29.52 c -4.96,13.926 -15.44,20.887 -31.43,20.887 -11.21,0 -20.13,-3.953 -26.77,-11.883 -6.64,-7.922 -9.96,-19.004 -9.96,-33.234 0,-14.246 3.32,-25.371 9.96,-33.36 6.64,-8.007 15.56,-12.011 26.77,-12.011 15.84,0 26.31,6.972 31.43,20.879 h 29.52 c -3.83,-13.438 -11.04,-24.11 -21.59,-32.032 -10.57,-7.918 -23.69,-11.875 -39.36,-11.875 -19.2,0 -34.8,6.231 -46.81,18.711"
         style="fill:#2e2d2d;fill-opacity:1;fill-rule:nonzero;stroke:none"
         id="path62" /><path
         d="m 2905.42,671.652 v -66.234 c 8.8,15.355 22.88,23.039 42.25,23.039 14.87,0 27.15,-4.961 36.83,-14.879 9.68,-9.926 14.52,-23.754 14.52,-41.527 v -78 h -27.12 v 73.926 c 0,11.836 -2.95,20.918 -8.87,27.238 -5.93,6.328 -14.01,9.48 -24.25,9.48 -10.24,0 -18.36,-3.152 -24.36,-9.48 -5.99,-6.32 -9,-15.402 -9,-27.238 v -73.926 h -27.36 v 177.601 h 27.36"
         style="fill:#2e2d2d;fill-opacity:1;fill-rule:nonzero;stroke:none"
         id="path64" /><path
         d="m 1276.5,338.758 h 13.32 l -31.32,-98.281 h -12.78 l -24.48,82.793 -24.48,-82.793 h -12.78 l -31.68,98.281 h 13.32 l 24.66,-84.785 25.38,84.785 h 12.6 l 23.76,-84.598 24.48,84.598"
         style="fill:#7a7b7c;fill-opacity:1;fill-rule:nonzero;stroke:none"
         id="path66" /><path
         d="m 1372.44,354.422 v -51.66 h 25.38 c 19.8,0 29.7,8.605 29.7,25.82 0,17.227 -9.9,25.84 -29.7,25.84 z m 0,-61.922 v -52.023 h -12.6 v 124.199 h 37.98 c 13.92,0 24.48,-3.328 31.68,-9.988 7.2,-6.661 10.8,-15.09 10.8,-25.286 0,-10.203 -2.82,-18.457 -8.46,-24.754 -5.64,-6.3 -14.04,-10.168 -25.2,-11.613 l 35.28,-52.558 h -16.38 l -33.66,52.023 h -19.44"
         style="fill:#7a7b7c;fill-opacity:1;fill-rule:nonzero;stroke:none"
         id="path68" /><path
         d="m 1526.16,338.758 v -9.903 l -50.22,-78.3 h 50.22 v -10.078 h -64.08 v 10.078 l 50.22,78.3 h -50.22 v 9.903 h 64.08"
         style="fill:#7a7b7c;fill-opacity:1;fill-rule:nonzero;stroke:none"
         id="path70" /><path
         d="m 1622.46,295.02 c 0,10.8 -3.28,19.402 -9.81,25.828 -6.55,6.418 -14.65,9.629 -24.31,9.629 -9.65,0 -17.7,-3.145 -24.12,-9.454 -6.42,-6.296 -9.93,-14.96 -10.52,-26.003 z m -34.38,-56.34 c -14.05,0 -25.45,4.679 -34.2,14.043 -8.77,9.355 -13.14,21.679 -13.14,36.984 0,15.301 4.47,27.606 13.41,36.902 8.93,9.297 20.51,13.946 34.74,13.946 14.22,0 25.52,-4.375 33.93,-13.145 8.39,-8.75 12.6,-19.609 12.6,-32.578 0,-3.477 -0.25,-6.719 -0.72,-9.715 h -81 c 0.47,-11.281 3.89,-20.156 10.26,-26.64 6.35,-6.477 14.39,-9.719 24.12,-9.719 7.55,0 14,1.738 19.35,5.215 5.33,3.476 9.03,8.047 11.07,13.683 h 13.5 c -3.25,-8.398 -8.53,-15.324 -15.84,-20.793 -7.33,-5.457 -16.69,-8.183 -28.08,-8.183"
         style="fill:#7a7b7c;fill-opacity:1;fill-rule:nonzero;stroke:none"
         id="path72" /><path
         d="m 1653.24,311.57 c 0,8.164 3.36,15.039 10.08,20.618 6.71,5.574 15.3,8.367 25.74,8.367 10.44,0 18.57,-2.735 24.39,-8.184 5.82,-5.469 9.03,-12.988 9.63,-22.598 h -12.96 c -0.25,5.997 -2.28,10.957 -6.13,14.856 -3.83,3.894 -9.18,5.848 -16.01,5.848 -6.84,0 -12.21,-1.68 -16.11,-5.039 -3.91,-3.36 -5.85,-7.411 -5.85,-12.149 0,-4.746 1.44,-8.496 4.32,-11.25 2.88,-2.762 6.51,-4.629 10.89,-5.586 4.38,-0.957 9.12,-2.098 14.21,-3.418 5.11,-1.316 9.84,-2.734 14.23,-4.226 4.38,-1.504 8.01,-4.211 10.89,-8.098 2.88,-3.906 4.32,-8.914 4.32,-15.039 0,-7.91 -3.31,-14.395 -9.9,-19.434 -6.61,-5.039 -15.27,-7.558 -26.02,-7.558 -10.73,0 -19.22,2.754 -25.46,8.281 -6.24,5.508 -9.66,13.008 -10.26,22.5 h 12.96 c 0.24,-6.121 2.39,-11.102 6.48,-14.941 4.07,-3.848 9.68,-5.762 16.83,-5.762 7.14,0 12.69,1.523 16.65,4.59 3.96,3.058 5.93,6.992 5.93,11.789 0,4.793 -1.44,8.582 -4.31,11.336 -2.88,2.765 -6.52,4.648 -10.9,5.675 -4.38,1.024 -9.12,2.188 -14.21,3.504 -5.11,1.328 -9.84,2.707 -14.22,4.141 -4.39,1.445 -8.02,4.023 -10.89,7.746 -2.88,3.719 -4.32,8.399 -4.32,14.031"
         style="fill:#7a7b7c;fill-opacity:1;fill-rule:nonzero;stroke:none"
         id="path74" /><path
         d="m 1806.95,338.758 v -9.903 l -50.22,-78.3 h 50.22 v -10.078 h -64.07 v 10.078 l 50.22,78.3 h -50.22 v 9.903 h 64.07"
         style="fill:#7a7b7c;fill-opacity:1;fill-rule:nonzero;stroke:none"
         id="path76" /><path
         d="m 1869.05,248.758 c 10.2,0 19.02,3.652 26.46,10.976 7.44,7.325 11.16,17.305 11.16,29.973 0,12.664 -3.54,22.617 -10.62,29.883 -7.08,7.254 -15.72,10.887 -25.92,10.887 -10.2,0 -18.72,-3.594 -25.56,-10.801 -6.84,-7.196 -10.26,-17.227 -10.26,-30.059 0,-12.84 3.24,-22.859 9.72,-30.058 6.48,-7.207 14.82,-10.801 25.02,-10.801 z m 0.09,-10.078 c -14.1,0 -25.56,4.679 -34.38,14.043 -8.82,9.355 -13.23,21.621 -13.23,36.797 0,15.187 4.68,27.48 14.04,36.914 9.36,9.414 21.06,14.121 35.1,14.121 14.04,0 25.74,-4.707 35.1,-14.121 9.36,-9.434 14.04,-21.668 14.04,-36.727 0,-15.059 -4.92,-27.336 -14.76,-36.809 -9.84,-9.48 -21.81,-14.218 -35.91,-14.218"
         style="fill:#7a7b7c;fill-opacity:1;fill-rule:nonzero;stroke:none"
         id="path78" /><path
         d="m 2053.73,338.758 h 13.32 l -31.32,-98.281 h -12.78 l -24.48,82.793 -24.48,-82.793 h -12.78 l -31.68,98.281 h 13.32 l 24.66,-84.785 25.38,84.785 h 12.6 l 23.76,-84.598 24.48,84.598"
         style="fill:#7a7b7c;fill-opacity:1;fill-rule:nonzero;stroke:none"
         id="path80" /><path
         d="m 2083.07,240.477 v 98.281 h 12.6 v -98.281 z m 15.66,126.093 c 0,-2.586 -0.87,-4.773 -2.61,-6.57 -1.74,-1.809 -3.9,-2.707 -6.48,-2.707 -2.58,0 -4.77,0.898 -6.57,2.707 -1.8,1.797 -2.7,3.984 -2.7,6.57 0,2.578 0.9,4.766 2.7,6.563 1.8,1.797 3.99,2.707 6.57,2.707 2.58,0 4.74,-0.91 6.48,-2.707 1.74,-1.797 2.61,-3.985 2.61,-6.563"
         style="fill:#7a7b7c;fill-opacity:1;fill-rule:nonzero;stroke:none"
         id="path82" /><path
         d="m 2198.09,295.02 c 0,10.8 -3.28,19.402 -9.81,25.828 -6.55,6.418 -14.65,9.629 -24.31,9.629 -9.65,0 -17.7,-3.145 -24.12,-9.454 -6.42,-6.296 -9.93,-14.96 -10.52,-26.003 z m -34.38,-56.34 c -14.05,0 -25.45,4.679 -34.2,14.043 -8.77,9.355 -13.14,21.679 -13.14,36.984 0,15.301 4.46,27.606 13.41,36.902 8.93,9.297 20.51,13.946 34.74,13.946 14.22,0 25.52,-4.375 33.93,-13.145 8.39,-8.75 12.59,-19.609 12.59,-32.578 0,-3.477 -0.24,-6.719 -0.71,-9.715 h -81 c 0.47,-11.281 3.89,-20.156 10.25,-26.64 6.36,-6.477 14.4,-9.719 24.13,-9.719 7.55,0 14,1.738 19.35,5.215 5.33,3.476 9.02,8.047 11.07,13.683 h 13.5 c -3.25,-8.398 -8.53,-15.324 -15.84,-20.793 -7.33,-5.457 -16.69,-8.183 -28.08,-8.183"
         style="fill:#7a7b7c;fill-opacity:1;fill-rule:nonzero;stroke:none"
         id="path84" /><g
         id="g86"
         transform="scale(10)"><text
           transform="matrix(1,0,0,-0.91759956,22.7523,68.6055)"
           style="font-variant:normal;font-weight:bold;font-size:15.2403px;font-family:Arial;-inkscape-font-specification:Arial-BoldMT;writing-mode:lr-tb;fill:#d51f39;fill-opacity:1;fill-rule:nonzero;stroke:none"
           id="text90"><tspan
             x="0"
             y="0"
             id="tspan88">Z</tspan></text><text
           transform="matrix(1,0,0,-0.91844232,57.9918,68.6863)"
           style="font-variant:normal;font-weight:bold;font-size:15.2473px;font-family:Arial;-inkscape-font-specification:Arial-BoldMT;writing-mode:lr-tb;fill:#d51f39;fill-opacity:1;fill-rule:nonzero;stroke:none"
           id="text94"><tspan
             x="0"
             y="0"
             id="tspan92">S</tspan></text><text
           transform="matrix(1,0,0,-0.94740931,22.9645,38.1238)"
           style="font-variant:normal;font-weight:bold;font-size:14.9202px;font-family:Arial;-inkscape-font-specification:Arial-BoldMT;writing-mode:lr-tb;fill:#d51f39;fill-opacity:1;fill-rule:nonzero;stroke:none"
           id="text98"><tspan
             x="0"
             y="0"
             id="tspan96">E</tspan></text></g><path
         d="m 452.156,949.422 c -189.699,0 -344.418,-157.945 -344.418,-351.621 0,-193.672 154.719,-351.602 344.418,-351.602 189.703,0 344.414,157.93 344.414,351.602 0,193.676 -154.711,351.621 -344.414,351.621 z m 69.989,68.028 c 62.875,-10.93 121.031,-36.278 171.054,-72.634 l 28.848,29.461 98.976,-101.047 -28.871,-29.476 c 35.614,-51.117 60.43,-110.559 71.102,-174.809 h 40.375 V 526.043 H 863.145 C 852.383,461.805 827.461,402.41 791.773,351.328 l 28.77,-29.367 -98.977,-101.043 -28.898,29.512 C 642.582,214.148 584.363,188.891 521.461,178.07 V 136.582 H 381.484 v 41.719 c -62.789,11.019 -120.863,36.445 -170.8,72.82 L 181.582,221.406 82.6055,322.449 111.855,352.313 C 76.4023,403.348 51.6836,462.664 41.0547,526.738 H 0 V 669.645 H 41.1797 C 51.918,733.691 76.7383,792.953 112.273,843.93 l -29.1871,29.797 98.9801,101.043 29.211,-29.829 c 49.989,36.286 108.086,61.589 170.891,72.509 v 41.65 h 139.977 v -41.65 0"
         style="fill:#5f91cf;fill-opacity:1;fill-rule:evenodd;stroke:none"
         id="path100" /><path
         d="M 665.059,510.293 560.41,361.582"
         style="fill:none;stroke:#e41e25;stroke-width:15;stroke-linecap:butt;stroke-linejoin:miter;stroke-miterlimit:22.9256;stroke-dasharray:none;stroke-opacity:1"
         id="path102" /><path
         d="m 570.543,420.594 41.781,-31.531"
         style="fill:none;stroke:#e41e25;stroke-width:15;stroke-linecap:butt;stroke-linejoin:miter;stroke-miterlimit:22.9256;stroke-dasharray:none;stroke-opacity:1"
         id="path104" /><path
         d="m 611.23,491.465 -21.832,-88.781 78.297,46.515 z"
         style="fill:#d51f39;fill-opacity:1;fill-rule:evenodd;stroke:none"
         id="path106" /><path
         d="m 675.348,1202.04 1.918,-67.39 112.73,51.19 L 389.059,607.012 H 595.918 L 250.469,126.691 279.117,108.422 156.941,0 195.426,160.461 221.664,143.379 479.723,557.215 H 306.352 l 368.996,644.825"
         style="fill:#d51f39;fill-opacity:1;fill-rule:evenodd;stroke:none"
         id="path108" /></g></g></svg>
